<?xml version="1.0" encoding="UTF-8" standalone="no"?>
<!DOCTYPE svg PUBLIC "-//W3C//DTD SVG 1.1//EN" "http://www.w3.org/Graphics/SVG/1.1/DTD/svg11.dtd">
<svg width="100%" height="100%" viewBox="0 0 640 640" version="1.1" xmlns="http://www.w3.org/2000/svg" xmlns:xlink="http://www.w3.org/1999/xlink" xml:space="preserve" xmlns:serif="http://www.serif.com/" style="fill-rule:evenodd;clip-rule:evenodd;stroke-linejoin:round;stroke-miterlimit:2;">
    <rect x="0" y="0" width="640" height="640" style="fill:white;"/>
    <g id="Background" transform="matrix(1.372446,0,0,1.372446,-119.182749,-4)">
        <path d="M211.503,113.2C209.383,112.954 208.433,113.714 208.339,111.521C208.309,110.81 208.306,64.262 208.341,63.475C208.448,61.112 215.328,61.818 218.5,61.818C417.485,61.856 417.785,61.572 418.593,62.416C419.44,63.3 419.336,111.881 418.633,112.613C417.487,113.806 375.741,112.991 349.498,113.213C344.841,113.253 344.984,115.442 337.037,129.234C314.562,168.239 314.504,168.222 314.505,168.5C314.515,170.522 315.601,169.505 321.471,169.87C395.428,174.464 442.051,256.611 407.778,322.644C385.693,365.195 349.514,373.258 348.291,374.401C346.058,376.488 349.744,375.199 386.5,375.199C417.441,375.199 419.044,374.669 419.082,377.51C419.133,381.362 419.692,423.415 418.796,425.664C418.365,426.744 417.877,426.58 372.5,426.58C209.46,426.58 208.881,426.713 208.472,425.511C208.172,424.632 208.306,376.831 208.402,376.472C208.809,374.944 209.57,375.203 259.5,375.2C272.898,375.199 286.411,376.197 275.686,373.143C260.418,368.795 230.841,348.532 217.972,319.284C191.772,259.737 224.299,219.754 242.133,188.287C263.53,150.533 285.39,114.828 284.408,113.585C284.017,113.091 283.844,113.235 211.503,113.2Z"/>
        <path d="M286.268,304.751C285.595,304.062 280.876,299.232 278.713,295.376C254.466,252.146 313.098,212.374 344.395,248.591C373.912,282.749 331.149,339.864 286.268,304.751Z" style="fill:white;"/>
    </g>
</svg>
